<?xml version="1.0" encoding="utf-8"?>
<!-- Generator: Adobe Illustrator 23.1.1, SVG Export Plug-In . SVG Version: 6.00 Build 0)  -->
<svg version="1.1" id="Capa_1" xmlns="http://www.w3.org/2000/svg" xmlns:xlink="http://www.w3.org/1999/xlink" x="0px" y="0px"
	 viewBox="0 0 2051 537.2" style="enable-background:new 0 0 2051 537.2;" xml:space="preserve">
<style type="text/css">
	.st0{fill-rule:evenodd;clip-rule:evenodd;fill:#E62AD0;}
	.st1{filter:url(#Adobe_OpacityMaskFilter);}
	.st2{fill-rule:evenodd;clip-rule:evenodd;fill:#FFFFFF;}
	.st3{mask:url(#mask-2_1_);fill-rule:evenodd;clip-rule:evenodd;fill:#1CEC17;}
	.st4{filter:url(#Adobe_OpacityMaskFilter_1_);}
	.st5{mask:url(#mask-6_1_);fill-rule:evenodd;clip-rule:evenodd;fill:#FFFFFF;}
	.st6{filter:url(#Adobe_OpacityMaskFilter_2_);}
	.st7{mask:url(#mask-6_2_);fill-rule:evenodd;clip-rule:evenodd;fill:#FFFFFF;}
	.st8{filter:url(#Adobe_OpacityMaskFilter_3_);}
	.st9{mask:url(#mask-6_3_);fill-rule:evenodd;clip-rule:evenodd;fill:#FFFFFF;}
	.st10{filter:url(#Adobe_OpacityMaskFilter_4_);}
	.st11{mask:url(#mask-6_4_);fill-rule:evenodd;clip-rule:evenodd;fill:#FFFFFF;}
	.st12{filter:url(#Adobe_OpacityMaskFilter_5_);}
	.st13{mask:url(#mask-6_5_);fill-rule:evenodd;clip-rule:evenodd;fill:#FFFFFF;}
	.st14{filter:url(#Adobe_OpacityMaskFilter_6_);}
	.st15{mask:url(#mask-6_6_);fill-rule:evenodd;clip-rule:evenodd;fill:#FFFFFF;}
	.st16{filter:url(#Adobe_OpacityMaskFilter_7_);}
	.st17{mask:url(#mask-6_7_);fill-rule:evenodd;clip-rule:evenodd;fill:#FFFFFF;}
	.st18{filter:url(#Adobe_OpacityMaskFilter_8_);}
	.st19{mask:url(#mask-6_8_);fill-rule:evenodd;clip-rule:evenodd;fill:#FFFFFF;}
	.st20{filter:url(#Adobe_OpacityMaskFilter_9_);}
	.st21{mask:url(#mask-6_9_);fill-rule:evenodd;clip-rule:evenodd;fill:#FFFFFF;}
	.st22{filter:url(#Adobe_OpacityMaskFilter_10_);}
	.st23{mask:url(#mask-6_10_);fill-rule:evenodd;clip-rule:evenodd;fill:#FFFFFF;}
</style>
<title>FOOTER</title>
<desc>Created with Sketch.</desc>
<g id="Page-1">
	<g id="EXTRA-LARGE---Mayor-que-1904px-Copy" transform="translate(0.000000, -5879.000000)">
		<g id="FOOTER" transform="translate(-6.000000, 5879.000000)">
			<rect id="Rectangle-Copy-8" x="9" y="0.2" class="st0" width="2048" height="537"/>
			<g>
				<g id="Group-4">
					<g id="Clip-3">
					</g>
					<defs>
						<filter id="Adobe_OpacityMaskFilter" filterUnits="userSpaceOnUse" x="6" y="0" width="2051" height="537.2">
							<feColorMatrix  type="matrix" values="1 0 0 0 0  0 1 0 0 0  0 0 1 0 0  0 0 0 1 0"/>
						</filter>
					</defs>
					<mask maskUnits="userSpaceOnUse" x="6" y="0" width="2051" height="537.2" id="mask-2_1_">
						<g class="st1">
							<polygon id="path-1_1_" class="st2" points="0,-7.8 2094,-7.8 2094,548.2 0,548.2 							"/>
						</g>
					</mask>
					<path id="Fill-2" class="st3" d="M1869.7,364.6l22.9-143.7l11.4-81.5h1.4l12.1,81.5l27.2,143.7H1869.7z M1478.9,230.9V88.7h20
						c45.7,0,60.7,31.4,60.7,70C1559.6,213.8,1530.3,233,1478.9,230.9L1478.9,230.9z M1197.5,449.6c-70.7,0-75.7-136.5-75.7-179.4
						c0-47.9,5-179.4,75.7-179.4c70.7,0,75.7,131.5,75.7,179.4C1273.2,313.1,1268.2,449.6,1197.5,449.6L1197.5,449.6z M1256.7,537.2
						c50.1-19,94-64.1,115.7-144.6v144.6h106.5V317.4l23.6,1.4c68.3,0,120.5-27.8,146.1-78.4v296.8h106.5h78.2l19.3-88.3h107.9
						l20,88.3h76.6V383.6L1964.7,0.2h-112.2l-97.4,420.5V0.2h-106.5v75.3c-42.2-83.8-146.8-75.3-165-75.3h-111.2v147.6
						c-22.7-84.5-69.8-130.4-123-147.6l-103.9,0c-36.6,11.9-70.3,37.3-95.2,79.5V0.2l-646,0v372.2c-0.7,40-0.7,79.3-52.9,79.3
						c-57.9,0-52.9-61.5-52.9-102.2V0.2l-106.5,0V401c0,13.9,1.2,26.7,3.4,38.6h-89V0.2H6v537h211.9v-42.9
						c14.6,20.1,35,34.1,60.6,42.9h147.9c80.3-26.7,84.4-97.6,84.4-143.4v-293h155.7L487.2,537.2h324.4v-97.6H642.3l142.3-338.8h75
						v436.4h106.5V100.8h73.3c-19.5,42.1-31.3,97.8-31.3,169.4c0,159.8,58.9,240.1,130.4,267H1256.7z"/>
				</g>
			</g>
			<g id="ENCIENDE-TU-LZ" transform="translate(972.000000, 425.000000)">
				<path id="Fill-1" class="st2" d="M51.5-7.2l-4.4,37.6H34.6l4.4-37.6H25l-4.5,37.6H4.5v16.9h14.1l-1.8,15.9H0.3v17h14.3
					l-3.7,31.9H25l3.9-31.9h12.4l-3.7,31.9h14l3.9-31.9h14.4v-17H57.2l1.8-15.9h14.8V30.5H61.1l4.5-37.6H51.5z M32.7,47.4h12.4
					l-2,15.9H30.9L32.7,47.4z"/>
				<polygon class="st2" points="86.6,-7.2 86.6,112.2 137.7,112.2 137.7,96.9 111.8,96.9 111.8,68.1 134.4,68.1 134.4,44.4 
					111.8,44.4 111.8,16.6 137.4,16.6 137.4,-7.2 				"/>
				<g id="Group-18" transform="translate(0.342350, 0.000000)">
					<path id="Fill-3" class="st2" d="M177.4-7.1l31.4,76.8l0.3-0.3c-1.5-6.1-2-12.7-2-19.3V-7.1h25.1v119.3h-27l-27.8-68.9
						l-0.3,0.3l1.2,12.8l0.2,5.2v50.4h-25.1V-7.1H177.4z"/>
					<path id="Fill-5" class="st2" d="M313.3,16.9c-3.2-0.8-6.2-1.4-9.4-1.4c-22.1,0-31.7,20.1-31.7,39.7c0,18.9,9.6,42.2,31.5,42.2
						c3.2,0,6.4-0.8,9.6-1.9v16.7h-41.8c-17.4-12-26.2-34.1-26.2-56.9c0-31.6,20.9-64,55.1-64c4.4,0,8.6,0.8,12.8,2.4V16.9z"/>
					<g id="Clip-8">
					</g>
					<defs>
						<filter id="Adobe_OpacityMaskFilter_1_" filterUnits="userSpaceOnUse" x="326.1" y="-15.1" width="25.1" height="127.3">
							<feColorMatrix  type="matrix" values="1 0 0 0 0  0 1 0 0 0  0 0 1 0 0  0 0 0 1 0"/>
						</filter>
					</defs>
					<mask maskUnits="userSpaceOnUse" x="326.1" y="-15.1" width="25.1" height="127.3" id="mask-6_1_">
						<g class="st4">
							<polygon id="path-5_1_" class="st2" points="0,114.3 1077.6,114.3 1077.6,-16.6 0,-16.6 							"/>
						</g>
					</mask>
					<polygon id="Fill-7" class="st5" points="326.1,112.2 351.2,112.2 351.2,-15.1 326.1,-15.1 					"/>
					<defs>
						<filter id="Adobe_OpacityMaskFilter_2_" filterUnits="userSpaceOnUse" x="369.1" y="-7.1" width="50.9" height="119.3">
							<feColorMatrix  type="matrix" values="1 0 0 0 0  0 1 0 0 0  0 0 1 0 0  0 0 0 1 0"/>
						</filter>
					</defs>
					<mask maskUnits="userSpaceOnUse" x="369.1" y="-7.1" width="50.9" height="119.3" id="mask-6_2_">
						<g class="st6">
							<polygon id="path-5_2_" class="st2" points="0,122.2 1077.6,122.2 1077.6,-8.6 0,-8.6 							"/>
						</g>
					</mask>
					<polygon id="Fill-9" class="st7" points="419.7,-7.1 419.7,16.5 394.2,16.5 394.2,44.2 416.6,44.2 416.6,67.9 394.2,67.9 
						394.2,96.6 420,96.6 420,112.2 369.1,112.2 369.1,-7.1 					"/>
					<defs>
						<filter id="Adobe_OpacityMaskFilter_3_" filterUnits="userSpaceOnUse" x="435.2" y="-7.1" width="78.9" height="119.3">
							<feColorMatrix  type="matrix" values="1 0 0 0 0  0 1 0 0 0  0 0 1 0 0  0 0 0 1 0"/>
						</filter>
					</defs>
					<mask maskUnits="userSpaceOnUse" x="435.2" y="-7.1" width="78.9" height="119.3" id="mask-6_3_">
						<g class="st8">
							<polygon id="path-5_3_" class="st2" points="0,122.2 1077.6,122.2 1077.6,-8.6 0,-8.6 							"/>
						</g>
					</mask>
					<path id="Fill-10" class="st9" d="M459.3-7.1l31.4,76.8l0.3-0.3c-1.5-6.1-2-12.7-2-19.3V-7.1h25.1v119.3h-27l-27.8-68.9
						l-0.3,0.3l1.2,12.8l0.2,5.2v50.4h-25.1V-7.1H459.3z"/>
					<defs>
						<filter id="Adobe_OpacityMaskFilter_4_" filterUnits="userSpaceOnUse" x="531.8" y="-7.3" width="76" height="119.5">
							<feColorMatrix  type="matrix" values="1 0 0 0 0  0 1 0 0 0  0 0 1 0 0  0 0 0 1 0"/>
						</filter>
					</defs>
					<mask maskUnits="userSpaceOnUse" x="531.8" y="-7.3" width="76" height="119.5" id="mask-6_4_">
						<g class="st10">
							<polygon id="path-5_4_" class="st2" points="0,122.2 1077.6,122.2 1077.6,-8.6 0,-8.6 							"/>
						</g>
					</mask>
					<path id="Fill-11" class="st11" d="M582.7,57.4c0-16.2-5.1-41.9-25.8-41.9v82.1C577.2,98.6,582.7,73.3,582.7,57.4L582.7,57.4z
						 M531.8,112.2V-7.1h19.1c4.4,0,57-6.4,57,64.7c0,24.8-6.1,44.4-22.9,54.7H531.8z"/>
					<defs>
						<filter id="Adobe_OpacityMaskFilter_5_" filterUnits="userSpaceOnUse" x="621.2" y="-7.1" width="50.9" height="119.3">
							<feColorMatrix  type="matrix" values="1 0 0 0 0  0 1 0 0 0  0 0 1 0 0  0 0 0 1 0"/>
						</filter>
					</defs>
					<mask maskUnits="userSpaceOnUse" x="621.2" y="-7.1" width="50.9" height="119.3" id="mask-6_5_">
						<g class="st12">
							<polygon id="path-5_5_" class="st2" points="0,122.2 1077.6,122.2 1077.6,-8.6 0,-8.6 							"/>
						</g>
					</mask>
					<polygon id="Fill-12" class="st13" points="671.7,-7.1 671.7,16.5 646.3,16.5 646.3,44.2 668.7,44.2 668.7,67.9 646.3,67.9 
						646.3,96.6 672.1,96.6 672.1,112.2 621.2,112.2 621.2,-7.1 					"/>
					<defs>
						<filter id="Adobe_OpacityMaskFilter_6_" filterUnits="userSpaceOnUse" x="680.8" y="-7.1" width="64.7" height="119.3">
							<feColorMatrix  type="matrix" values="1 0 0 0 0  0 1 0 0 0  0 0 1 0 0  0 0 0 1 0"/>
						</filter>
					</defs>
					<mask maskUnits="userSpaceOnUse" x="680.8" y="-7.1" width="64.7" height="119.3" id="mask-6_6_">
						<g class="st14">
							<polygon id="path-5_6_" class="st2" points="0,122.2 1077.6,122.2 1077.6,-8.6 0,-8.6 							"/>
						</g>
					</mask>
					<polygon id="Fill-13" class="st15" points="745.6,-7.1 745.6,16.5 725.7,16.5 725.7,112.2 700.6,112.2 700.6,16.5 680.8,16.5 
						680.8,-7.1 					"/>
					<defs>
						<filter id="Adobe_OpacityMaskFilter_7_" filterUnits="userSpaceOnUse" x="756.4" y="-7.1" width="75.2" height="119.3">
							<feColorMatrix  type="matrix" values="1 0 0 0 0  0 1 0 0 0  0 0 1 0 0  0 0 0 1 0"/>
						</filter>
					</defs>
					<mask maskUnits="userSpaceOnUse" x="756.4" y="-7.1" width="75.2" height="119.3" id="mask-6_7_">
						<g class="st16">
							<polygon id="path-5_7_" class="st2" points="0,122.2 1077.6,122.2 1077.6,-8.6 0,-8.6 							"/>
						</g>
					</mask>
					<path id="Fill-14" class="st17" d="M781.5-7.1v82.4c0,9.6-1.2,24.1,12.5,24.1c12.3,0,12.3-9.3,12.5-18.7V-7.1h25.1v92.9
						c0,8-0.5,18.6-8.5,26.5h-58.4c-5.8-5.7-8.3-13.5-8.3-24.8V-7.1H781.5z"/>
					<defs>
						<filter id="Adobe_OpacityMaskFilter_8_" filterUnits="userSpaceOnUse" x="848.8" y="-7.1" width="51.4" height="119.3">
							<feColorMatrix  type="matrix" values="1 0 0 0 0  0 1 0 0 0  0 0 1 0 0  0 0 0 1 0"/>
						</filter>
					</defs>
					<mask maskUnits="userSpaceOnUse" x="848.8" y="-7.1" width="51.4" height="119.3" id="mask-6_8_">
						<g class="st18">
							<polygon id="path-5_8_" class="st2" points="0,122.2 1077.6,122.2 1077.6,-8.6 0,-8.6 							"/>
						</g>
					</mask>
					<polygon id="Fill-15" class="st19" points="873.9,-7.1 873.9,96.6 900.2,96.6 900.2,112.2 848.8,112.2 848.8,-7.1 					"/>
					<defs>
						<filter id="Adobe_OpacityMaskFilter_9_" filterUnits="userSpaceOnUse" x="911" y="-7.1" width="75.2" height="119.3">
							<feColorMatrix  type="matrix" values="1 0 0 0 0  0 1 0 0 0  0 0 1 0 0  0 0 0 1 0"/>
						</filter>
					</defs>
					<mask maskUnits="userSpaceOnUse" x="911" y="-7.1" width="75.2" height="119.3" id="mask-6_9_">
						<g class="st20">
							<polygon id="path-5_9_" class="st2" points="0,122.2 1077.6,122.2 1077.6,-8.6 0,-8.6 							"/>
						</g>
					</mask>
					<path id="Fill-16" class="st21" d="M936.1-7.1v82.4c0,9.6-1.2,24.1,12.5,24.1c12.3,0,12.3-9.3,12.5-18.7V-7.1h25.1v92.9
						c0,7.9-0.4,18.6-8.1,26.5h-58.3c-5.9-5.7-8.8-13.4-8.8-24.8V-7.1H936.1z"/>
					<defs>
						<filter id="Adobe_OpacityMaskFilter_10_" filterUnits="userSpaceOnUse" x="1000.7" y="-7.1" width="76.8" height="119.3">
							<feColorMatrix  type="matrix" values="1 0 0 0 0  0 1 0 0 0  0 0 1 0 0  0 0 0 1 0"/>
						</filter>
					</defs>
					<mask maskUnits="userSpaceOnUse" x="1000.7" y="-7.1" width="76.8" height="119.3" id="mask-6_10_">
						<g class="st22">
							<polygon id="path-5_10_" class="st2" points="0,122.2 1077.6,122.2 1077.6,-8.6 0,-8.6 							"/>
						</g>
					</mask>
					<polygon id="Fill-17" class="st23" points="1077.6,-7.1 1034.1,96.6 1074,96.6 1074,112.2 1000.7,112.2 1039.8,16.5 
						1002.9,16.5 1002.9,-7.1 					"/>
				</g>
			</g>
		</g>
	</g>
</g>
</svg>
