<?xml version="1.0" encoding="UTF-8"?>
<svg width="206px" height="64px" viewBox="0 0 206 64" version="1.1" xmlns="http://www.w3.org/2000/svg" xmlns:xlink="http://www.w3.org/1999/xlink">
    <!-- Generator: Sketch 54.1 (76490) - https://sketchapp.com -->
    <title>Group 17</title>
    <desc>Created with Sketch.</desc>
    <defs>
        <polygon id="path-1" points="0 64 205.817403 64 205.817403 0.151794872 0 0.151794872"></polygon>
    </defs>
    <g id="Page-1" stroke="none" stroke-width="1" fill="none" fill-rule="evenodd">
        <g id="LARGE---1264-1903px-Copy" transform="translate(-17.000000, -14.000000)">
            <g id="Group-17" transform="translate(17.000000, 14.000000)">
                <polygon id="Fill-1" fill="#FFFFFF" points="19.8166076 12 19.8166076 44.5730265 28 44.5730265 28 52 12 52 12 12"></polygon>
                <g id="Group-16">
                    <path d="M38.3905627,12.1186188 L38.3905627,37.9461744 C38.3905627,40.9629265 38.022103,45.5145846 42.2874188,45.5145846 C46.1314822,45.5145846 46.1314822,42.6036786 46.1842748,39.6399863 L46.1842748,12.1186188 L54.0305073,12.1186188 L54.0305073,41.2276786 C54.0305073,45.4617983 53.5561902,52.6596103 42.2346262,52.6596103 C34.9152312,52.6596103 30.5443303,49.2194735 30.5443303,41.7569094 L30.5443303,12.1186188 L38.3905627,12.1186188 Z" id="Fill-2" fill="#FFFFFF"></path>
                    <polygon id="Fill-4" fill="#FFFFFF" points="79.9382864 12.1186188 66.352083 44.6150291 78.8326351 44.6150291 78.8326351 52.0245333 54.9249337 52.0245333 68.1424053 19.5281231 56.6099429 19.5281231 56.6099429 12.1186188"></polygon>
                    <polygon id="Fill-6" fill="#FFFFFF" points="101.683178 12.1186188 101.683178 19.5281231 95.4694346 19.5281231 95.4694346 52.0245333 87.6232021 52.0245333 87.6232021 19.5281231 81.4619789 19.5281231 81.4619789 12.1186188"></polygon>
                    <path d="M115.637923,45.3559521 C120.850784,45.3559521 121.219788,35.2472342 121.219788,32.0715761 C121.219788,28.5255932 120.850784,18.7872 115.637923,18.7872 C110.42479,18.7872 110.055786,28.5255932 110.055786,32.0715761 C110.055786,35.2472342 110.42479,45.3559521 115.637923,45.3559521 M129.592314,32.0715761 C129.592314,47.0494906 122.641379,52.6596103 115.637923,52.6596103 C108.634195,52.6596103 101.68326,47.0494906 101.68326,32.0715761 C101.68326,17.0936615 108.634195,11.4835419 115.637923,11.4835419 C122.641379,11.4835419 129.592314,17.0936615 129.592314,32.0715761" id="Fill-8" fill="#FFFFFF"></path>
                    <path d="M140.004158,29.1606974 C143.795701,29.3193299 145.954755,27.8902701 145.954755,23.8150564 C145.954755,20.9572103 144.848832,18.6285949 141.478541,18.6285949 L140.004158,18.6285949 L140.004158,29.1606974 Z M132.157926,52.0245607 L132.157926,12.1186462 L140.320097,12.1186462 C142.005379,12.1186462 153.800988,11.0601846 153.800988,23.9209026 C153.800988,31.3834667 149.008835,35.6706462 141.74196,35.6706462 L140.004158,35.5648 L140.004158,52.0245607 L132.157926,52.0245607 Z" id="Fill-10" fill="#FFFFFF"></path>
                    <mask id="mask-2" fill="white">
                        <use xlink:href="#path-1"></use>
                    </mask>
                    <g id="Clip-13"></g>
                    <path d="M156.458769,52.0246154 L164.305001,52.0246154 L164.305001,12.1187009 L156.458769,12.1187009 L156.458769,52.0246154 Z M166.882042,7.18495726 L164.305001,10.5980171 L156.458497,10.5980171 L159.438285,7.18495726 L166.882042,7.18495726 Z" id="Fill-12" fill="#FFFFFF" mask="url(#mask-2)"></path>
                    <path d="M180.889362,28.4197744 L179.994065,22.3859966 L179.888752,22.3859966 L179.046247,28.4197744 L177.361238,39.0577231 L182.89031,39.0577231 L180.889362,28.4197744 Z M184.364694,12.1186462 L193.895935,52.0245607 L185.52341,52.0245607 L184.048754,45.3029197 L176.097481,45.3029197 L174.675618,52.0245607 L166.881906,52.0245607 L176.097481,12.1186462 L184.364694,12.1186462 Z" id="Fill-14" fill="#FFFFFF" mask="url(#mask-2)"></path>
                    <path d="M4.17496962,59.8036239 L201.642433,59.8036239 L201.642433,4.34789744 L4.17496962,4.34789744 L4.17496962,59.8036239 Z M0,64 L205.817403,64 L205.817403,0.151794872 L0,0.151794872 L0,64 Z" id="Fill-15" fill="#FFFFFF" mask="url(#mask-2)"></path>
                </g>
            </g>
        </g>
    </g>
</svg>