<?xml version="1.0" encoding="utf-8"?>
<!-- Generator: Adobe Illustrator 23.1.1, SVG Export Plug-In . SVG Version: 6.00 Build 0)  -->
<svg version="1.1" id="Capa_1" xmlns="http://www.w3.org/2000/svg" xmlns:xlink="http://www.w3.org/1999/xlink" x="0px" y="0px"
	 viewBox="0 0 48 48" style="enable-background:new 0 0 48 48;" xml:space="preserve">
<style type="text/css">
	.st0{fill:#FFFFFF;}
</style>
<title>Group 8</title>
<desc>Created with Sketch.</desc>
<g id="Page-1">
	<g id="LARGE---1264-1903px-Copy" transform="translate(-249.000000, -966.000000)">
		<g id="INFORMACION" transform="translate(0.000000, 700.000000)">
			<g id="Group-8" transform="translate(246.000000, 261.000000)">
				<path class="st0" d="M20.3,41.1V16.9L39.2,29L20.3,41.1z M24.1,23.9v10.2l7.9-5.1L24.1,23.9z"/>
				<path class="st0" d="M27,52C14.3,52,4,41.7,4,29S14.3,6,27,6s23,10.3,23,23S39.7,52,27,52z M27,9.9C16.4,9.9,7.9,18.4,7.9,29
					S16.4,48.1,27,48.1c10.6,0,19.1-8.6,19.1-19.1S37.6,9.9,27,9.9z"/>
			</g>
		</g>
	</g>
</g>
</svg>
