<?xml version="1.0" encoding="utf-8"?>
<!-- Generator: Adobe Illustrator 23.1.1, SVG Export Plug-In . SVG Version: 6.00 Build 0)  -->
<svg version="1.1" id="Capa_1" xmlns="http://www.w3.org/2000/svg" xmlns:xlink="http://www.w3.org/1999/xlink" x="0px" y="0px"
	 viewBox="0 0 1282 164" style="enable-background:new 0 0 1282 164;" xml:space="preserve">
<style type="text/css">
	.st0{fill-rule:evenodd;clip-rule:evenodd;fill:#FF00EA;}
	.st1{fill:#FFFFFF;}
</style>
<title>Group 7</title>
<desc>Created with Sketch.</desc>
<g id="Page-1">
	<g id="LARGE---1264-1903px-Copy" transform="translate(0.000000, -702.000000)">
		<g id="ATRACIONES" transform="translate(-5.000000, 702.000000)">
			<g id="Group-2">
				<g id="Group-7" transform="translate(0.399358, 0.000000)">
					<rect id="Rectangle" x="4.6" class="st0" width="1282" height="164"/>
					<path id="ATRACCIONES" class="st1" d="M24.7,27.7h22.1L72.3,134H49.9L46,116.1H24.7L20.9,134H4.6v-19.8L24.7,27.7z M42.9,99.5
						l-5.4-28.3L35.1,55h-0.3l-2.3,16.1l-4.5,28.3H42.9z M63.8,27.7H118v19.7h-16.6V134h-21V47.4H63.8V27.7z M144.7,134h-21V27.7
						h21.1c13.4,0,37.4,1.4,37.4,30.5c0,11.7-4.7,21.7-15.1,27.5l18.5,48.4h-22.1L145,84.9h-0.3V134z M144.7,45v28.3l3.7,0.1
						c9.6,0,13.4-6.5,13.4-15.2c0-7.6-3.7-13.8-14.2-13.3H144.7z M212.9,27.7h22.1L260.6,134h-22.4l-3.9-17.9h-21.3l-3.8,17.9h-20.9
						L212.9,27.7z M231.1,99.5l-5.4-28.3L223.3,55h-0.3l-2.3,16.1l-4.5,28.3H231.1z M318.2,28.4v19.3c-2.7-0.7-5.2-1.1-7.9-1.1
						c-18.5,0-26.5,16.8-26.5,33.1c0,15.8,8,35.2,26.4,35.2c2.7,0,5.4-0.7,8-1.6v19.9c-3.1,1.3-6.3,1.8-9.7,1.8
						c-30.3,0-47.1-27.4-47.1-55.3c0-26.4,17.5-53.4,46.1-53.4C311.1,26.4,314.7,27.1,318.2,28.4z M378.1,28.4v19.3
						c-2.7-0.7-5.2-1.1-7.9-1.1c-18.5,0-26.5,16.8-26.5,33.1c0,15.8,8,35.2,26.4,35.2c2.7,0,5.4-0.7,8-1.6v19.9
						c-3.1,1.3-6.3,1.8-9.7,1.8c-30.3,0-47.1-27.4-47.1-55.3c0-26.4,17.5-53.4,46.1-53.4C371,26.4,374.6,27.1,378.1,28.4z
						 M384.9,27.7h21V134h-21V27.7z M450.6,26c18.8,0,37.4,14.9,37.4,54.8s-18.6,54.8-37.4,54.8c-18.8,0-37.4-14.9-37.4-54.8
						S431.8,26,450.6,26z M435.7,80.8c0,8.5,1,35.4,14.9,35.4c14,0,14.9-26.9,14.9-35.4c0-9.4-1-35.4-14.9-35.4
						C436.6,45.5,435.7,71.4,435.7,80.8z M495.3,27.7h20.2l26.2,64.2l0.3-0.3c-1.3-5.1-1.7-10.6-1.7-16.1V27.7h21V134h-19.9
						l-25.9-64.2l-0.3,0.3l1,10.7l0.1,4.4V134h-21V27.7z M572.2,27.7h42.3v19.7h-21.3v23.1H612v19.7h-18.8v24h21.6V134h-42.6V27.7z
						 M667.3,31.2v20.4c-4.2-3.7-9.4-6.8-15.2-6.8c-6.5,0-10.6,3.9-10.6,10.4c0,17.5,32,18.5,32,47.2c0,18.9-10.9,33.1-30.6,33.1
						c-5.9,0-13.3-1.8-18-5.4v-20c4.9,3.4,9.7,5.6,15.9,5.6c6.8,0,12.1-4.5,12.1-11.6c0-8.2-6.5-11.3-12.4-15.5
						c-12.1-8.2-19.6-16.1-19.6-31.6c0-16.8,9.7-31.3,27.8-31.3C655.5,26,661.5,27.8,667.3,31.2z"/>
				</g>
			</g>
		</g>
	</g>
</g>
</svg>
