<?xml version="1.0" encoding="utf-8"?>
<!-- Generator: Adobe Illustrator 23.1.1, SVG Export Plug-In . SVG Version: 6.00 Build 0)  -->
<svg version="1.1" id="Capa_1" xmlns="http://www.w3.org/2000/svg" xmlns:xlink="http://www.w3.org/1999/xlink" x="0px" y="0px"
	 viewBox="0 0 1282 164" style="enable-background:new 0 0 1282 164;" xml:space="preserve">
<style type="text/css">
	.st0{fill-rule:evenodd;clip-rule:evenodd;fill:#0A0CFA;}
	.st1{fill:#FFFFFF;}
</style>
<title>Group 7</title>
<desc>Created with Sketch.</desc>
<g id="Page-1">
	<g id="LARGE---1264-1903px-Copy" transform="translate(0.000000, -702.000000)">
		<g id="ATRACIONES" transform="translate(-5.000000, 702.000000)">
			<g id="Group-2">
				<g id="Group-7" transform="translate(0.399358, 0.000000)">
					<rect id="Rectangle" x="4.6" class="st0" width="1282" height="164"/>
				</g>
			</g>
		</g>
	</g>
</g>
<g id="CONSEJO" transform="translate(835.000000, 0.000000)">
	<path class="st1" d="M61.3,29.5v19.3c-2.7-0.7-5.2-1.1-7.9-1.1c-18.5,0-26.5,16.8-26.5,33.1c0,15.8,8,35.2,26.4,35.2
		c2.7,0,5.4-0.7,8-1.6v19.9c-3.1,1.3-6.3,1.8-9.7,1.8c-30.3,0-47.1-27.4-47.1-55.3c0-26.4,17.5-53.4,46.1-53.4
		C54.3,27.6,57.8,28.3,61.3,29.5z M101.7,27.2c18.8,0,37.4,14.9,37.4,54.8s-18.6,54.8-37.4,54.8S64.4,121.9,64.4,82
		S83,27.2,101.7,27.2z M86.8,82c0,8.5,1,35.4,14.9,35.4s14.9-26.9,14.9-35.4c0-9.4-1-35.4-14.9-35.4S86.8,72.6,86.8,82z M146.4,28.8
		h20.2L192.8,93l0.3-0.3c-1.3-5.1-1.7-10.6-1.7-16.1V28.8h21v106.3h-19.9L166.5,71l-0.3,0.3l1,10.7l0.1,4.4v48.8h-21V28.8z
		 M267,32.4v20.4c-4.2-3.7-9.4-6.8-15.2-6.8c-6.5,0-10.6,3.9-10.6,10.4c0,17.5,32,18.5,32,47.2c0,18.9-10.9,33.1-30.6,33.1
		c-5.9,0-13.3-1.8-18-5.4v-20c4.9,3.4,9.7,5.6,15.9,5.6c6.8,0,12.1-4.5,12.1-11.6c0-8.2-6.5-11.3-12.4-15.5
		c-12.1-8.2-19.6-16.1-19.6-31.6c0-16.8,9.7-31.3,27.8-31.3C255.2,27.2,261.2,29,267,32.4z M281.5,28.8h42.3v19.7h-21.3v23.1h18.8
		v19.7h-18.8v24h21.6v19.7h-42.6V28.8z M368.3,28.8v71.9c0,8.7,1,36.1-25.4,36.1c-5.2,0-11.3-0.8-15.8-3.2v-21
		c2.5,3.4,6.6,5.9,11,5.9c9.9,0,9.2-10.7,9.2-17.8V28.8H368.3z M412.3,27.2c14.6,0,29,8.7,34.7,31.5v46.6
		c-5.7,22.7-20.2,31.5-34.7,31.5c-18.8,0-37.4-14.9-37.4-54.8S393.5,27.2,412.3,27.2z M397.3,82c0,8.5,1,35.4,14.9,35.4
		c14,0,14.9-26.9,14.9-35.4c0-9.4-1-35.4-14.9-35.4C398.3,46.6,397.3,72.6,397.3,82z"/>
</g>
</svg>
