<?xml version="1.0" encoding="utf-8"?>
<!-- Generator: Adobe Illustrator 23.1.1, SVG Export Plug-In . SVG Version: 6.00 Build 0)  -->
<svg version="1.1" id="Capa_1" xmlns="http://www.w3.org/2000/svg" xmlns:xlink="http://www.w3.org/1999/xlink" x="0px" y="0px"
	 viewBox="0 0 1282 164" style="enable-background:new 0 0 1282 164;" xml:space="preserve">
<style type="text/css">
	.st0{fill-rule:evenodd;clip-rule:evenodd;fill:#FF00EA;}
	.st1{fill:#FFFFFF;}
</style>
<title>Group 7</title>
<desc>Created with Sketch.</desc>
<g id="Page-1">
	<g id="LARGE---1264-1903px-Copy" transform="translate(0.000000, -702.000000)">
		<g id="ATRACIONES" transform="translate(-5.000000, 702.000000)">
			<g id="Group-2">
				<g id="Group-7" transform="translate(0.399358, 0.000000)">
					<rect id="Rectangle" x="4.6" class="st0" width="1282" height="164"/>
				</g>
			</g>
		</g>
	</g>
</g>
<path id="MAPA" class="st1" d="M999.9,29.7h27.6l10.3,62.7h0.3l8.5-62.7h28.2l11.1,106.3h-21.6l-5.1-76.6h-0.3l-3.4,26.2l-9,50.3
	h-16.2l-10.3-50.9l-3.5-23.7v-2h-0.3l-3.1,76.6h-22.6L999.9,29.7z M1111.1,29.7h22.1l25.5,106.3h-22.4l-3.9-17.9h-21.3l-3.8,17.9
	h-20.9L1111.1,29.7z M1129.3,101.5l-5.4-28.3l-2.4-16.1h-0.3l-2.3,16.1l-4.5,28.3H1129.3z M1184.4,136h-21V29.7h21.9
	c4.5,0,36.1-2.8,36.1,31.4c0,19.9-12.8,31.3-32.3,31.3l-4.7-0.3V136z M1184.4,47.1v28.1c10.2,0.4,15.9-3.4,15.9-14.2
	c0-7.6-3-13.8-12-13.8H1184.4z M1241.3,29.7h22.1L1282,107V136h-15.4l-3.9-17.9h-21.3l-3.8,17.9h-20.9L1241.3,29.7z M1259.5,101.5
	l-5.4-28.3l-2.4-16.1h-0.3l-2.3,16.1l-4.5,28.3H1259.5z"/>
</svg>
