<?xml version="1.0" encoding="utf-8"?>
<!-- Generator: Adobe Illustrator 23.1.1, SVG Export Plug-In . SVG Version: 6.00 Build 0)  -->
<svg version="1.1" id="Capa_1" xmlns="http://www.w3.org/2000/svg" xmlns:xlink="http://www.w3.org/1999/xlink" x="0px" y="0px"
	 viewBox="0 0 1282 164" style="enable-background:new 0 0 1282 164;" xml:space="preserve">
<style type="text/css">
	.st0{fill-rule:evenodd;clip-rule:evenodd;fill:#0A0CFA;}
	.st1{fill:#FFFFFF;}
</style>
<title>Group 7</title>
<desc>Created with Sketch.</desc>
<g id="Page-1">
	<g id="LARGE---1264-1903px-Copy" transform="translate(0.000000, -702.000000)">
		<g id="ATRACIONES" transform="translate(-5.000000, 702.000000)">
			<g id="Group-2">
				<g id="Group-7" transform="translate(0.399358, 0.000000)">
					<rect id="Rectangle" x="4.6" class="st0" width="1282" height="164"/>
				</g>
			</g>
		</g>
	</g>
</g>
<path id="PATROCINADORES" class="st1" d="M19,135.2H0V28.8h19.9C24.4,28.8,56,26,56,60.3c0,19.9-12.8,31.3-32.3,31.3L19,91.3V135.2z
	 M19,46.2v28.1c10.2,0.4,15.9-3.4,15.9-14.2c0-7.6-3-13.8-12-13.8H19z M75.9,28.8h22.1l25.5,106.3h-22.4l-3.9-17.9H75.9l-3.8,17.9
	H51.3L75.9,28.8z M94.1,100.6l-5.4-28.3l-2.4-16.1h-0.3l-2.3,16.1l-4.5,28.3H94.1z M115.1,28.8h54.1v19.7h-16.6v86.6h-21V48.6h-16.5
	V28.8z M196,135.2h-21V28.8h21.1c13.4,0,37.4,1.4,37.4,30.5c0,11.7-4.7,21.7-15.1,27.5l18.5,48.4h-22.1l-18.5-49.1H196V135.2z
	 M196,46.2v28.3l3.7,0.1c9.6,0,13.4-6.5,13.4-15.2c0-7.6-3.7-13.8-14.2-13.3H196z M279.4,27.2c18.8,0,37.4,14.9,37.4,54.8
	s-18.6,54.8-37.4,54.8c-18.8,0-37.4-14.9-37.4-54.8S260.6,27.2,279.4,27.2z M264.5,82c0,8.5,1,35.4,14.9,35.4
	c14,0,14.9-26.9,14.9-35.4c0-9.4-1-35.4-14.9-35.4C265.4,46.6,264.5,72.6,264.5,82z M377.1,29.5v19.3c-2.7-0.7-5.2-1.1-7.9-1.1
	c-18.5,0-26.5,16.8-26.5,33.1c0,15.8,8,35.2,26.4,35.2c2.7,0,5.4-0.7,8-1.6v19.9c-3.1,1.3-6.3,1.8-9.7,1.8
	c-30.3,0-47.1-27.4-47.1-55.3c0-26.4,17.5-53.4,46.1-53.4C370,27.6,373.5,28.3,377.1,29.5z M383.9,28.8h21v106.3h-21V28.8z
	 M416,28.8h20.2L462.4,93l0.3-0.3c-1.3-5.1-1.7-10.6-1.7-16.1V28.8h21v106.3h-19.9L436.2,71l-0.3,0.3l1,10.7l0.1,4.4v48.8h-21V28.8z
	 M511.3,28.8h22.1L559,135.2h-22.4l-3.9-17.9h-21.3l-3.8,17.9h-20.9L511.3,28.8z M529.5,100.6l-5.4-28.3l-2.4-16.1h-0.3l-2.3,16.1
	l-4.5,28.3H529.5z M582.3,135.2h-18.8V28.8h15.9c3.7,0,47.7-5.4,47.7,54C627.2,113.2,615.5,135.2,582.3,135.2z M584.6,116.3
	c16.9,0.8,21.6-20.3,21.6-33.6c0-13.5-4.2-35-21.6-35V116.3z M668,27.2c18.8,0,37.4,14.9,37.4,54.8s-18.6,54.8-37.4,54.8
	c-18.8,0-37.4-14.9-37.4-54.8S649.3,27.2,668,27.2z M653.1,82c0,8.5,1,35.4,14.9,35.4c14,0,14.9-26.9,14.9-35.4
	c0-9.4-1-35.4-14.9-35.4C654,46.6,653.1,72.6,653.1,82z M733.7,135.2h-21V28.8h21.2c13.4,0,37.4,1.4,37.4,30.5
	c0,11.7-4.7,21.7-15.1,27.5l18.5,48.4h-22.1l-18.5-49.1h-0.3V135.2z M733.7,46.2v28.3l3.7,0.1c9.6,0,13.4-6.5,13.4-15.2
	c0-7.6-3.7-13.8-14.2-13.3H733.7z M783.5,28.8h42.3v19.7h-21.3v23.1h18.8v19.7h-18.8v24h21.6v19.7h-42.6V28.8z M878.7,32.4v20.4
	c-4.2-3.7-9.4-6.8-15.2-6.8c-6.5,0-10.6,3.9-10.6,10.4c0,17.5,32,18.5,32,47.2c0,18.9-10.9,33.1-30.6,33.1c-5.9,0-13.3-1.8-18-5.4
	v-20c4.9,3.4,9.7,5.6,15.9,5.6c6.8,0,12.1-4.5,12.1-11.6c0-8.2-6.5-11.3-12.4-15.5c-12.1-8.2-19.6-16.1-19.6-31.6
	c0-16.8,9.7-31.3,27.8-31.3C866.8,27.2,872.9,29,878.7,32.4z"/>
</svg>
